<?xml version="1.0" encoding="UTF-8"?>
<svg id="Layer_1" data-name="Layer 1" xmlns="http://www.w3.org/2000/svg" viewBox="0 0 597.4 597.4">
  <defs>
    <style>
      .cls-1 {
        fill: #00b5e2;
      }

      .cls-2 {
        fill: gold;
      }

      .cls-3 {
        fill: #001e49;
      }
    </style>
  </defs>
  <circle class="cls-3" cx="298.7" cy="298.7" r="298.7"/>
  <path class="cls-2" d="M138.68,244.44h19.46l29.8,63.66,29.73-63.66h19.46v95.63h-18.37v-58.66l-24.9,52.25h-11.91l-24.9-52.25v58.66h-18.37v-95.63Z"/>
  <path class="cls-1" d="M273.9,290.54c-6.4-6.26-10.07-12.31-10.07-19.32,0-15.92,13.2-24.9,28.92-24.9s27.76,9.8,27.76,23.95c0,9.8-7.01,16.81-20.41,23.54l16.4,15.72c.95-1.84,1.84-5.92,1.84-11.16,0-2.45-.2-5.44-.68-8.84h16.94c.41,3.61.68,6.94.68,10.34,0,7.48-1.57,14.08-5.92,20.82l20.14,19.39h-24.29l-7.42-7.08c-5.85,4.15-14.56,8.44-27.22,8.44-21.91,0-35.72-10.68-35.72-26.19,0-12.45,10.21-20.28,19.05-24.7ZM273.49,314.08c0,7.35,7.28,11.43,17.21,11.43,6.67,0,11.97-1.84,15.31-4.15l-21.36-20.55c-4.9,2.11-11.16,6.4-11.16,13.27ZM281.93,271.01c0,5.85,3.4,9.12,7.35,12.72,8.98-4.35,13.47-8.64,13.47-13.33,0-5.72-4.97-8.44-10.14-8.44s-10.68,3.2-10.68,9.05Z"/>
  <path class="cls-2" d="M360.34,247.67h19.46l29.8,61.51,29.73-61.51h19.46v92.4h-18.37v-56.68l-24.9,50.49h-11.91l-24.9-50.49v56.68h-18.37v-92.4Z"/>
</svg>